PathFileType	4	(X/Y/Z)	OpenSim_Sub02_CSStiffKnee_Magnet.trc
DataRate	CameraRate	NumFrames	NumMarkers	Units	OrigDataRate	OrigDataStartFrame	OrigNumFrames
100	100	23	8	m	100	2585	6891
Frame#	Time	torso_imu_offset_imu	pelvis_imu_offset_imu	tibia_r_imu_offset_imu	femur_r_imu_offset_imu	tibia_l_imu_offset_imu	femur_l_imu_offset_imu	toes_r_imu_offset_imu	toes_l_imu_offset_imu
				X1	Y1	Z1	X2	Y2	Z2	X3	Y3	Z3	X4	Y4	Z4	X5	Y5	Z5	X6	Y6	Z6	X7	Y7	Z7	X8		Y8	Z8	

2585	25.84000000	-0.93391871	-0.20410324	0.08763503	-0.59480267	0.22903520	-0.69679224	-0.68814789	-0.35607074	-0.27890380	-0.84414867	-0.13898859	-0.01436473	-0.39168190	0.77276852	-0.06634920	-0.43061917	0.44579692	0.18507036	-0.47603342	-0.21771313	-0.60528549	-0.79840395	-0.13788438	-0.25577851
2586	25.85000000	-0.93657315	-0.19535539	0.08313822	-0.59739660	0.22627300	-0.69266224	-0.69509895	-0.35024883	-0.28530540	-0.84770219	-0.14764317	0.00029499	-0.38444284	0.77466054	-0.06770091	-0.43576374	0.45420583	0.17185135	-0.47794878	-0.21197203	-0.61240423	-0.80801944	-0.13615846	-0.24805757
2587	25.86000000	-0.93027306	-0.19809901	0.08327255	-0.59384578	0.22677837	-0.68585486	-0.69325367	-0.34301176	-0.28021945	-0.84523502	-0.14883853	0.00494211	-0.37247426	0.77850980	-0.06701413	-0.43498041	0.46009465	0.15580180	-0.47729811	-0.20591663	-0.60593322	-0.81390877	-0.12301500	-0.23937903
2588	25.87000000	-0.93441342	-0.20221471	0.08140015	-0.59851848	0.21908997	-0.68940043	-0.69474609	-0.35080909	-0.27778128	-0.84522099	-0.14793613	0.00564477	-0.35977973	0.77943907	-0.07390406	-0.42495241	0.46495459	0.15143635	-0.48195171	-0.20642682	-0.59590701	-0.82054253	-0.11710519	-0.22149933
2589	25.88000000	-0.93945450	-0.19669239	0.07713744	-0.59974229	0.21804479	-0.68608929	-0.69007501	-0.35316816	-0.27379652	-0.84330712	-0.14443563	0.00926417	-0.34731521	0.78626094	-0.08070337	-0.42591948	0.47082559	0.13953507	-0.49686510	-0.21732076	-0.58694886	-0.83344715	-0.10775635	-0.20698709
2590	25.89000000	-0.93738536	-0.19808012	0.06717051	-0.59631465	0.20770109	-0.69162876	-0.68755879	-0.37216737	-0.27298083	-0.84358844	-0.14359946	0.01080066	-0.33114477	0.79061988	-0.09270844	-0.42367058	0.47343677	0.13040873	-0.51663376	-0.21172108	-0.57058127	-0.83778369	-0.10043037	-0.18082117
2591	25.90000000	-0.93939299	-0.19153434	0.06426610	-0.59324967	0.20330746	-0.68710507	-0.68155639	-0.38624930	-0.25925252	-0.84378896	-0.14136297	0.02240898	-0.32431901	0.79760079	-0.09313494	-0.42768737	0.47624595	0.11585883	-0.55400194	-0.20036396	-0.54059540	-0.84842203	-0.09806987	-0.15403428
2592	25.91000000	-0.93730789	-0.18957088	0.05604530	-0.59432349	0.19946682	-0.69201434	-0.67427045	-0.40697979	-0.23261962	-0.84319547	-0.15291627	0.03321773	-0.30424294	0.80372802	-0.10073109	-0.42937060	0.47653126	0.10117734	-0.59193102	-0.24118354	-0.48295275	-0.85767860	-0.08836947	-0.12354007
2593	25.92000000	-0.93737537	-0.18912662	0.04931913	-0.58784800	0.21134828	-0.69185904	-0.68287982	-0.40030304	-0.22467647	-0.84039376	-0.16350255	0.04834821	-0.28286177	0.80845657	-0.10624161	-0.42247038	0.48883877	0.09264779	-0.63376224	-0.26046973	-0.41510919	-0.85896215	-0.07789300	-0.08704883
2594	25.93000000	-0.93822577	-0.19132200	0.03295313	-0.58350693	0.21586216	-0.69206733	-0.68652233	-0.39212029	-0.22359536	-0.83532564	-0.17195377	0.05306810	-0.26489984	0.81181521	-0.11498181	-0.43002620	0.48054449	0.08338064	-0.64543862	-0.26746196	-0.38849960	-0.86803089	-0.06615454	-0.05069971
2595	25.94000000	-0.94221062	-0.18362878	0.02882634	-0.58153246	0.22259992	-0.68878260	-0.67747820	-0.40875096	-0.23035295	-0.82977596	-0.16836001	0.06137308	-0.24902070	0.81648951	-0.11344394	-0.43354740	0.47293458	0.07984358	-0.62688942	-0.32803111	-0.37788139	-0.86662058	-0.05547534	-0.00582530
2596	25.95000000	-0.94206910	-0.18621728	0.01980021	-0.58751746	0.23493505	-0.68232502	-0.66386510	-0.44167021	-0.23553180	-0.83500177	-0.15791679	0.06392434	-0.23928142	0.82732055	-0.11422382	-0.43836524	0.47478212	0.08494218	-0.63165742	-0.28484421	-0.39631013	-0.86230808	-0.05203237	0.04562679
2597	25.96000000	-0.94462668	-0.18338426	0.01356814	-0.58601887	0.23650972	-0.68165045	-0.63584460	-0.46442533	-0.21315294	-0.84425909	-0.13927041	0.07626277	-0.21813064	0.82293194	-0.11873147	-0.44516468	0.46315173	0.07850900	-0.63649191	-0.28535032	-0.38666869	-0.85789320	-0.03674491	0.09667283
2598	25.97000000	-0.94279664	-0.18580404	0.00981421	-0.59000391	0.24642615	-0.67986568	-0.63095671	-0.48718291	-0.20251343	-0.84236216	-0.12151559	0.08759838	-0.19726978	0.83101288	-0.10679059	-0.45439270	0.46419620	0.08510224	-0.63370820	-0.29478869	-0.38242314	-0.84780547	-0.03224408	0.15768159
2599	25.98000000	-0.93710974	-0.19198569	0.00801710	-0.59180605	0.23823749	-0.67188028	-0.62136722	-0.49785908	-0.19478726	-0.84532927	-0.10368509	0.09187954	-0.17420397	0.83740114	-0.10677981	-0.46128138	0.44998541	0.09420650	-0.63835117	-0.28098974	-0.38510146	-0.83108898	-0.02284521	0.20976807
2600	25.99000000	-0.93995989	-0.18550166	0.00612052	-0.60400693	0.23928526	-0.67716255	-0.60856335	-0.51979911	-0.19788565	-0.84475197	-0.10956237	0.10070510	-0.15841353	0.84044434	-0.11894103	-0.46378647	0.44192310	0.10016401	-0.64459681	-0.28410697	-0.38070494	-0.81589370	-0.00445857	0.25595974
2601	26	-0.93999854	-0.18924474	0.00913782	-0.60180805	0.23196948	-0.67292289	-0.59673488	-0.53088716	-0.19779811	-0.84127299	-0.12282187	0.10280462	-0.13192428	0.83830362	-0.12762415	-0.47307786	0.43339769	0.10198861	-0.64062359	-0.27946371	-0.37450413	-0.80945484	0.00862788	0.29777855
2602	26.01000000	-0.94153830	-0.19287741	0.01013363	-0.60080750	0.23627004	-0.67326412	-0.60083161	-0.52701360	-0.19499421	-0.83491034	-0.14048468	0.10546977	-0.11059723	0.84193466	-0.12994217	-0.48130016	0.42277112	0.10145764	-0.64587086	-0.28035510	-0.37858837	-0.79345720	0.04147292	0.33117296
2603	26.02000000	-0.93900463	-0.19517764	0.00604248	-0.60280580	0.23157946	-0.67798741	-0.59763525	-0.52358334	-0.20215690	-0.83212939	-0.16447770	0.10644083	-0.10141467	0.84509945	-0.12448145	-0.48999332	0.40994268	0.09969490	-0.64569896	-0.28305089	-0.37334407	-0.77707477	0.07087321	0.35541823
2604	26.03000000	-0.94032120	-0.19606190	0.00601660	-0.60218384	0.22880874	-0.67152304	-0.60061898	-0.52776330	-0.20368511	-0.82765271	-0.18759020	0.10996230	-0.08325596	0.84296362	-0.12999772	-0.50108680	0.40529911	0.09988863	-0.64032321	-0.28295703	-0.36877097	-0.76675162	0.09071377	0.36682489
2605	26.04000000	-0.94390007	-0.19168366	0.00424937	-0.59951578	0.22337567	-0.67683831	-0.58683274	-0.54135185	-0.20891599	-0.82388214	-0.19773759	0.10902391	-0.07025166	0.84224376	-0.13893842	-0.51077491	0.38695406	0.10029037	-0.64364277	-0.27884868	-0.36401550	-0.76833558	0.09580589	0.35046164
2606	26.05000000	-0.94117090	-0.18986695	0.00634090	-0.59786106	0.22266983	-0.67922032	-0.57427163	-0.54924629	-0.21689688	-0.82008102	-0.19998382	0.10919877	-0.05725070	0.83868221	-0.16085100	-0.51739977	0.38520984	0.09939539	-0.64420951	-0.28356432	-0.36567244	-0.77387239	0.08511213	0.34275190
2607	26.06000000	-0.94247688	-0.18774220	0.00601059	-0.60094381	0.21354731	-0.68333510	-0.57256112	-0.54941415	-0.22156566	-0.82812292	-0.19619614	0.11667653	-0.05248448	0.83734354	-0.18565199	-0.52567816	0.37338926	0.09902538	-0.64051343	-0.27468825	-0.36142338	-0.78424466	0.07536678	0.32157636
